<svg width="0" height="0" class="hidden">
  <symbol version="1.1" xmlns="http://www.w3.org/2000/svg" viewBox="0 0 59 32" id="arrow-bottom">
    <title>arrow-bottom</title>
    <path d="M28.197 30.374c0.199 0.2 0.435 0.358 0.696 0.466s0.539 0.164 0.821 0.164 0.561-0.056 0.821-0.164c0.26-0.108 0.497-0.266 0.696-0.466l25.714-25.714c0.402-0.402 0.628-0.948 0.628-1.517s-0.226-1.115-0.628-1.517c-0.403-0.402-0.948-0.628-1.517-0.628s-1.115 0.226-1.517 0.628l-24.197 24.201-24.197-24.201c-0.402-0.402-0.948-0.628-1.517-0.628s-1.115 0.226-1.517 0.628c-0.402 0.402-0.628 0.948-0.628 1.517s0.226 1.115 0.628 1.517l25.714 25.714z"></path>
  </symbol>
  <symbol version="1.1" xmlns="http://www.w3.org/2000/svg" viewBox="0 0 17 32" id="arrow-left">
    <title>arrow-left</title>
    <path fill="none" stroke-linejoin="round" stroke-linecap="round" stroke-miterlimit="4" stroke-width="2.4615" d="M16 30.769l-14.769-14.769 14.769-14.769"></path>
  </symbol>
  <symbol version="1.1" xmlns="http://www.w3.org/2000/svg" viewBox="0 0 17 32" id="arrow-right">
    <title>arrow-right</title>
    <path fill="none" stroke-linejoin="round" stroke-linecap="round" stroke-miterlimit="4" stroke-width="2.4615"  d="M1.231 30.769l14.769-14.769-14.769-14.769"></path>
  </symbol>
  <symbol version="1.1" xmlns="http://www.w3.org/2000/svg" viewBox="0 0 32 32" id="burger">
    <title>burger</title>
    <path fill="#fff" d="M32 16c0 8.837-7.163 16-16 16s-16-7.163-16-16c0-8.837 7.163-16 16-16s16 7.163 16 16z"></path>
  </symbol>
  <symbol version="1.1" xmlns="http://www.w3.org/2000/svg" viewBox="0 0 17 32" id="facebook">
    <title>facebook</title>
    <path fill="#fff" d="M11.167 2.009l0.189 0.031h2.613v3.014h-2.613c-0.147 0-0.289 0.010-0.425 0.031s-0.247 0.058-0.331 0.11c-0.084 0.052-0.163 0.11-0.236 0.173s-0.136 0.126-0.189 0.188c-0.052 0.063-0.094 0.131-0.126 0.204s-0.052 0.136-0.063 0.188l-0.031 0.157-0.016 0.11v4.835h5.101l-0.724 3.014h-4.376v15.071h-3.023v-15.071h-4.030v-3.014h4.030v-4.678c0-0.649 0.084-1.23 0.252-1.743s0.394-0.916 0.677-1.209c0.283-0.293 0.572-0.544 0.866-0.754s0.619-0.356 0.976-0.44c0.357-0.084 0.64-0.141 0.85-0.173s0.42-0.047 0.63-0.047zM11.167 0c-1.301 0-2.466 0.314-3.495 0.942-1.847 1.109-2.771 2.92-2.771 5.432v2.669h-2.015c-0.546 0-1.018 0.199-1.417 0.597s-0.598 0.869-0.598 1.413v3.014c0 0.544 0.199 1.015 0.598 1.413s0.871 0.597 1.417 0.597h2.015v13.030c0 0.565 0.194 1.041 0.582 1.429s0.866 0.581 1.433 0.581h3.023c0.546 0 1.018-0.194 1.417-0.581s0.598-0.863 0.598-1.429v-13.030h2.361c0.462 0 0.871-0.136 1.228-0.408s0.598-0.617 0.724-1.036l0.693-3.014c0.189-0.649 0.084-1.24-0.315-1.774s-0.934-0.801-1.606-0.801h-3.085v-1.978h2.015c0.546 0 1.018-0.199 1.417-0.597s0.598-0.869 0.598-1.413v-3.014c0-0.565-0.194-1.041-0.582-1.429s-0.855-0.581-1.401-0.581h-2.582c-0.084-0.021-0.168-0.031-0.252-0.031z"></path>
  </symbol>
  <symbol version="1.1" xmlns="http://www.w3.org/2000/svg" viewBox="0 0 32 32" id="instagram">
    <title>instagram</title>
    <path fill="#fff" d="M15.557 8.090c-1.477 0-2.921 0.438-4.149 1.259s-2.185 1.987-2.75 3.351c-0.565 1.364-0.713 2.866-0.425 4.314s0.999 2.779 2.044 3.824c1.044 1.044 2.375 1.756 3.824 2.044s2.95 0.14 4.314-0.425c1.365-0.565 2.531-1.522 3.351-2.75s1.259-2.672 1.259-4.149c-0.002-1.98-0.79-3.878-2.19-5.278s-3.298-2.187-5.278-2.19zM15.557 20.536c-0.985 0-1.947-0.292-2.766-0.839s-1.457-1.325-1.834-2.234c-0.377-0.91-0.475-1.911-0.283-2.876s0.666-1.853 1.362-2.549c0.696-0.696 1.583-1.17 2.549-1.362s1.967-0.094 2.876 0.283 1.687 1.015 2.234 1.834c0.547 0.819 0.839 1.781 0.839 2.766-0.001 1.32-0.527 2.585-1.46 3.519s-2.199 1.458-3.519 1.46zM22.403 0h-13.691c-2.31 0.003-4.524 0.921-6.158 2.555s-2.552 3.848-2.555 6.158v13.691c0.003 2.31 0.921 4.524 2.555 6.158s3.848 2.552 6.158 2.555h13.691c2.31-0.003 4.524-0.921 6.158-2.555s2.552-3.848 2.555-6.158v-13.691c-0.003-2.31-0.921-4.524-2.555-6.158s-3.848-2.552-6.158-2.555zM28.626 22.403c-0.002 1.65-0.658 3.232-1.825 4.398s-2.748 1.823-4.398 1.825h-13.691c-1.65-0.002-3.232-0.658-4.398-1.825s-1.823-2.748-1.825-4.398v-13.691c0.002-1.65 0.658-3.232 1.825-4.398s2.748-1.823 4.398-1.825h13.691c1.65 0.002 3.232 0.658 4.398 1.825s1.823 2.748 1.825 4.398v13.691zM25.514 7.468c0 0.369-0.109 0.73-0.315 1.037s-0.497 0.546-0.838 0.688c-0.341 0.141-0.717 0.178-1.079 0.106s-0.695-0.25-0.956-0.511-0.439-0.594-0.511-0.956c-0.072-0.362-0.035-0.737 0.106-1.079s0.381-0.633 0.688-0.838c0.307-0.205 0.668-0.315 1.037-0.315 0.495 0 0.97 0.197 1.32 0.547s0.547 0.825 0.547 1.32z"></path>
  </symbol>
  <symbol version="1.1" xmlns="http://www.w3.org/2000/svg" viewBox="0 0 32 32" id="phone">
    <title>phone</title>
    <path fill="#fff" d="M26.996 3.032c-0.772-0.711-3.895-2.978-10.86-3.008 0 0-8.21-0.492-12.209 3.178-2.224 2.224-3.008 5.488-3.093 9.529s-0.188 11.613 7.11 13.667h0.006l-0.006 3.136c0 0-0.049 1.27 0.79 1.525 1.009 0.316 1.604-0.65 2.571-1.689 0.529-0.571 1.258-1.41 1.811-2.048 4.995 0.419 8.83-0.541 9.268-0.681 1.009-0.328 6.715-1.057 7.639-8.63 0.96-7.815-0.462-12.75-3.026-14.98zM27.841 17.441c-0.784 6.32-5.409 6.721-6.259 6.995-0.365 0.116-3.737 0.954-7.973 0.681 0 0-3.16 3.81-4.145 4.801-0.322 0.322-0.675 0.292-0.668-0.346 0-0.419 0.024-5.208 0.024-5.208-0.006 0-0.006 0 0 0-6.187-1.714-5.822-8.162-5.755-11.534s0.705-6.138 2.589-7.998c3.385-3.069 10.355-2.613 10.355-2.613 5.889 0.024 8.709 1.799 9.365 2.394 2.169 1.86 3.276 6.308 2.467 12.829zM19.394 12.531c0.024 0.523-0.76 0.559-0.784 0.037-0.067-1.337-0.693-1.987-1.981-2.060-0.523-0.030-0.474-0.814 0.042-0.784 1.695 0.091 2.638 1.063 2.723 2.808zM20.627 13.218c0.061-2.577-1.55-4.594-4.607-4.819-0.517-0.036-0.462-0.82 0.055-0.784 3.525 0.255 5.403 2.68 5.336 5.621-0.006 0.523-0.796 0.498-0.784-0.018zM23.484 14.032c0.006 0.523-0.784 0.529-0.784 0.006-0.036-4.953-3.336-7.651-7.341-7.682-0.517-0.006-0.517-0.784 0-0.784 4.479 0.030 8.083 3.124 8.125 8.459zM22.797 19.994v0.012c-0.656 1.155-1.884 2.431-3.148 2.024l-0.012-0.018c-1.282-0.359-4.303-1.914-6.211-3.434-0.985-0.778-1.884-1.695-2.577-2.577-0.626-0.784-1.258-1.714-1.872-2.832-1.294-2.34-1.58-3.385-1.58-3.385-0.407-1.264 0.863-2.492 2.024-3.148h0.012c0.559-0.292 1.094-0.194 1.452 0.237 0 0 0.754 0.899 1.076 1.343 0.304 0.413 0.711 1.076 0.924 1.446 0.371 0.662 0.14 1.337-0.225 1.617l-0.729 0.583c-0.371 0.298-0.322 0.851-0.322 0.851s1.082 4.090 5.123 5.123c0 0 0.553 0.049 0.851-0.322l0.583-0.729c0.279-0.365 0.954-0.596 1.616-0.225 0.893 0.504 2.030 1.288 2.783 1.999 0.425 0.346 0.523 0.875 0.231 1.434z"></path>
  </symbol>
  <symbol version="1.1" xmlns="http://www.w3.org/2000/svg" viewBox="0 0 34 32" id="telegram">
    <title>telegram</title>
    <path fill="#fff" d="M33.18 0.55c-0.305-0.27-0.676-0.449-1.073-0.518s-0.805-0.026-1.18 0.126l-29.177 11.741c-0.445 0.179-0.821 0.501-1.073 0.917s-0.365 0.905-0.322 1.393c0.042 0.488 0.238 0.948 0.557 1.313s0.745 0.614 1.214 0.71l7.665 1.57v9.747c-0 0.449 0.129 0.887 0.372 1.26s0.589 0.664 0.994 0.836c0.405 0.172 0.85 0.216 1.279 0.129s0.824-0.304 1.133-0.622l4.311-4.416 6.448 5.812c0.401 0.365 0.919 0.567 1.455 0.567 0.233-0 0.465-0.038 0.687-0.111 0.366-0.119 0.695-0.334 0.954-0.624s0.44-0.644 0.524-1.028l5.946-26.578c0.091-0.402 0.072-0.822-0.054-1.214s-0.354-0.741-0.659-1.010l-0 0zM2.244 14.037c-0.010-0.070 0.004-0.142 0.041-0.202s0.093-0.106 0.159-0.127l24.414-9.824-16.338 12.086-8.022-1.643c-0.069-0.010-0.132-0.044-0.178-0.097s-0.073-0.121-0.075-0.192zM12.227 27.778c-0.044 0.045-0.101 0.076-0.162 0.089s-0.125 0.006-0.183-0.018c-0.058-0.025-0.107-0.066-0.142-0.119s-0.053-0.116-0.053-0.18v-8.394l4.765 4.295-4.226 4.328zM26.098 28.918c-0.012 0.055-0.038 0.105-0.075 0.147s-0.084 0.072-0.136 0.089c-0.052 0.017-0.108 0.020-0.161 0.009s-0.104-0.037-0.145-0.074l-13.323-12.009 19.759-14.617-5.919 26.455z"></path>
  </symbol>
  <symbol version="1.1" xmlns="http://www.w3.org/2000/svg" viewBox="0 0 32 32" id="viber">
    <title>viber</title>
    <path fill="#fff" d="M27.466 4.522c-1.435-1.438-3.143-2.578-5.024-3.354s-3.898-1.173-5.935-1.168c-8.539 0-15.49 6.917-15.494 15.418 0 2.717 0.713 5.369 2.067 7.708l-2.197 7.988 8.213-2.145c2.272 1.231 4.817 1.876 7.403 1.877h0.007c8.537 0 15.489-6.917 15.492-15.418 0.006-2.026-0.392-4.033-1.17-5.905s-1.921-3.572-3.364-5.002zM16.508 28.245h-0.005c-2.306 0-4.57-0.617-6.554-1.788l-0.469-0.278-4.873 1.273 1.299-4.728-0.305-0.484c-1.289-2.043-1.972-4.408-1.969-6.82 0.003-7.066 5.779-12.815 12.883-12.815 1.692-0.004 3.367 0.326 4.93 0.972s2.981 1.592 4.173 2.786c1.199 1.189 2.149 2.602 2.795 4.158s0.977 3.225 0.972 4.909c-0.003 7.066-5.779 12.816-12.876 12.816zM23.571 18.646c-0.388-0.194-2.29-1.125-2.646-1.254-0.354-0.129-0.611-0.192-0.87 0.192s-1.001 1.252-1.227 1.51-0.452 0.288-0.839 0.096c-0.387-0.192-1.634-0.599-3.113-1.912-1.151-1.022-1.928-2.283-2.154-2.669s-0.024-0.594 0.171-0.787c0.174-0.172 0.387-0.45 0.58-0.675s0.257-0.385 0.387-0.642c0.129-0.258 0.066-0.483-0.033-0.675-0.097-0.194-0.871-2.090-1.194-2.861-0.312-0.747-0.632-0.648-0.87-0.658-0.247-0.010-0.493-0.015-0.74-0.014-0.196 0.005-0.389 0.050-0.567 0.133s-0.337 0.201-0.466 0.348c-0.355 0.386-1.355 1.317-1.355 3.213s1.387 3.729 1.581 3.986c0.193 0.258 2.73 4.148 6.613 5.817 0.925 0.397 1.646 0.634 2.207 0.812 0.927 0.294 1.771 0.251 2.438 0.153 0.744-0.11 2.29-0.931 2.613-1.831s0.323-1.671 0.226-1.833c-0.097-0.161-0.357-0.259-0.742-0.452z"></path>
  </symbol>
</svg>